PathFileType	4	(X/Y/Z)	C:\Users\italobelli\Desktop\GitHub\PTbot_officialCBL\Personal_Results\FLX01_noisy2.trc
DataRate	CameraRate	NumFrames	NumMarkers	Units	OrigDataRate	OrigDataStartFrame	OrigNumFrames
106.533333	106.533333	47	9	m	106.533333	301	800
Frame#	Time		gu		centelbow		EpL		centpxt8		centijc7		ij		ts		aa		ai
			X1	Y1	Z1	X2	Y2	Z2	X3	Y3	Z3	X4	Y4	Z4	X5	Y5	Z5	X6	Y6	Z6	X7	Y7	Z7	X8	Y8	Z8	X9	Y9	Z9

301	2.816	-0.098782	0.057964	0.10328	0.0085709	0.26723	0.19006	-0.018146	0.28211	0.17956	-0.046816	-0.15316	-0.008669	-0.046816	0.031938	-0.008669	0	0	0	-0.1489	-0.021672	0.057764	-0.12885	0.081312	0.1134	-0.11965	-0.073704	0.15395
302	2.8254	-0.098913	0.058102	0.103	0.0071039	0.26852	0.1895	-0.019645	0.28323	0.17883	-0.046816	-0.15316	-0.008669	-0.046816	0.031938	-0.008669	0	0	0	-0.14874	-0.021828	0.057733	-0.12919	0.081454	0.11305	-0.11945	-0.073403	0.15416
303	2.8348	-0.099041	0.058236	0.10273	0.0056669	0.26977	0.18895	-0.021111	0.28432	0.17812	-0.046816	-0.15316	-0.008669	-0.046816	0.031938	-0.008669	0	0	0	-0.14858	-0.021981	0.057703	-0.12951	0.081591	0.1127	-0.11924	-0.073108	0.15436
304	2.8442	-0.099163	0.058366	0.10247	0.0042615	0.27097	0.18841	-0.022542	0.28537	0.17743	-0.046816	-0.15316	-0.008669	-0.046816	0.031938	-0.008669	0	0	0	-0.14842	-0.02213	0.057674	-0.12984	0.081725	0.11236	-0.11904	-0.072818	0.15456
305	2.8536	-0.099281	0.058493	0.10222	0.0028895	0.27213	0.18789	-0.023937	0.28637	0.17676	-0.046816	-0.15316	-0.008669	-0.046816	0.031938	-0.008669	0	0	0	-0.14827	-0.022276	0.057645	-0.13015	0.081853	0.11203	-0.11884	-0.072534	0.15476
306	2.863	-0.099394	0.058615	0.10197	0.0015528	0.27324	0.18739	-0.025293	0.28734	0.17611	-0.046816	-0.15316	-0.008669	-0.046816	0.031938	-0.008669	0	0	0	-0.14811	-0.022417	0.057618	-0.13045	0.081977	0.1117	-0.11865	-0.072256	0.15495
307	2.8723	-0.099501	0.058734	0.10172	0.00025304	0.2743	0.18691	-0.02661	0.28826	0.17548	-0.046816	-0.15316	-0.008669	-0.046816	0.031938	-0.008669	0	0	0	-0.14796	-0.022555	0.057592	-0.13075	0.082096	0.11139	-0.11845	-0.071986	0.15514
308	2.8817	-0.099603	0.058848	0.10149	-0.0010079	0.27532	0.18645	-0.027884	0.28913	0.17487	-0.046816	-0.15316	-0.008669	-0.046816	0.031938	-0.008669	0	0	0	-0.14781	-0.022689	0.057566	-0.13104	0.082209	0.11109	-0.11826	-0.071722	0.15532
309	2.8911	-0.0997	0.058957	0.10126	-0.0022283	0.27628	0.18601	-0.029115	0.28996	0.1743	-0.046816	-0.15316	-0.008669	-0.046816	0.031938	-0.008669	0	0	0	-0.14766	-0.022818	0.057542	-0.13131	0.082318	0.1108	-0.11808	-0.071465	0.1555
310	2.9005	-0.099791	0.059062	0.10104	-0.0034063	0.2772	0.18559	-0.0303	0.29074	0.17374	-0.046816	-0.15316	-0.008669	-0.046816	0.031938	-0.008669	0	0	0	-0.14752	-0.022943	0.057519	-0.13158	0.08242	0.11052	-0.1179	-0.071217	0.15567
311	2.9099	-0.099875	0.059161	0.10083	-0.0045402	0.27806	0.1852	-0.031438	0.29148	0.17322	-0.046816	-0.15316	-0.008669	-0.046816	0.031938	-0.008669	0	0	0	-0.14737	-0.023063	0.057497	-0.13183	0.082517	0.11025	-0.11772	-0.070977	0.15583
312	2.9193	-0.099954	0.059255	0.10063	-0.0056281	0.27886	0.18483	-0.032527	0.29216	0.17273	-0.046816	-0.15316	-0.008669	-0.046816	0.031938	-0.008669	0	0	0	-0.14723	-0.023178	0.057477	-0.13207	0.082608	0.11	-0.11755	-0.070746	0.15599
313	2.9287	-0.10003	0.059344	0.10044	-0.0066684	0.27961	0.18448	-0.033565	0.29279	0.17226	-0.046816	-0.15316	-0.008669	-0.046816	0.031938	-0.008669	0	0	0	-0.14709	-0.023288	0.057457	-0.1323	0.082694	0.10975	-0.11738	-0.070523	0.15614
314	2.938	-0.10009	0.059428	0.10026	-0.0076592	0.2803	0.18417	-0.03455	0.29336	0.17183	-0.046816	-0.15316	-0.008669	-0.046816	0.031938	-0.008669	0	0	0	-0.14696	-0.023394	0.057439	-0.13252	0.082772	0.10952	-0.11721	-0.07031	0.15629
315	2.9474	-0.10015	0.059505	0.10008	-0.0085988	0.28094	0.18388	-0.035481	0.29389	0.17142	-0.046816	-0.15316	-0.008669	-0.046816	0.031938	-0.008669	0	0	0	-0.14682	-0.023494	0.057422	-0.13272	0.082845	0.10931	-0.11706	-0.070107	0.15643
316	2.9568	-0.1002	0.059577	0.099917	-0.0094853	0.28151	0.18361	-0.036355	0.29435	0.17105	-0.046816	-0.15316	-0.008669	-0.046816	0.031938	-0.008669	0	0	0	-0.14669	-0.023588	0.057407	-0.13291	0.082911	0.1091	-0.1169	-0.069915	0.15656
317	2.9662	-0.10025	0.059642	0.099763	-0.010317	0.28202	0.18338	-0.037172	0.29476	0.17072	-0.046816	-0.15316	-0.008669	-0.046816	0.031938	-0.008669	0	0	0	-0.14657	-0.023677	0.057392	-0.13308	0.08297	0.10892	-0.11675	-0.069732	0.15669
318	2.9756	-0.10029	0.059701	0.099619	-0.011092	0.28247	0.18318	-0.037929	0.29511	0.17042	-0.046816	-0.15316	-0.008669	-0.046816	0.031938	-0.008669	0	0	0	-0.14644	-0.02376	0.05738	-0.13324	0.083022	0.10874	-0.11661	-0.069561	0.15681
319	2.985	-0.10032	0.059754	0.099485	-0.011809	0.28285	0.18301	-0.038624	0.2954	0.17016	-0.046816	-0.15316	-0.008669	-0.046816	0.031938	-0.008669	0	0	0	-0.14632	-0.023837	0.057368	-0.13338	0.083067	0.10859	-0.11647	-0.069402	0.15692
320	2.9944	-0.10034	0.0598	0.099362	-0.012466	0.28316	0.18287	-0.039255	0.29563	0.16994	-0.046816	-0.15316	-0.008669	-0.046816	0.031938	-0.008669	0	0	0	-0.14621	-0.023908	0.057358	-0.13351	0.083104	0.10845	-0.11634	-0.069254	0.15703
321	3.0038	-0.10036	0.059839	0.09925	-0.013063	0.28342	0.18276	-0.039825	0.2958	0.16975	-0.046816	-0.15316	-0.008669	-0.046816	0.031938	-0.008669	0	0	0	-0.1461	-0.023973	0.05735	-0.13362	0.083135	0.10832	-0.11621	-0.069117	0.15713
322	3.0131	-0.10037	0.059877	0.099141	-0.013626	0.28365	0.18266	-0.04036	0.29596	0.16958	-0.046816	-0.15316	-0.008669	-0.046816	0.031938	-0.008669	0	0	0	-0.14598	-0.024036	0.057344	-0.13373	0.083164	0.1082	-0.11608	-0.068985	0.15723
323	3.0225	-0.10038	0.059914	0.099035	-0.01416	0.28387	0.18257	-0.040869	0.29611	0.16941	-0.046816	-0.15316	-0.008669	-0.046816	0.031938	-0.008669	0	0	0	-0.14587	-0.024096	0.05734	-0.13384	0.083192	0.10809	-0.11596	-0.068855	0.15732
324	3.0319	-0.10039	0.05995	0.09893	-0.014666	0.28408	0.18249	-0.041351	0.29625	0.16925	-0.046816	-0.15316	-0.008669	-0.046816	0.031938	-0.008669	0	0	0	-0.14576	-0.024154	0.057338	-0.13394	0.08322	0.10797	-0.11584	-0.068728	0.15741
325	3.0413	-0.10039	0.059986	0.098827	-0.015145	0.28429	0.18241	-0.041808	0.29638	0.16911	-0.046816	-0.15316	-0.008669	-0.046816	0.031938	-0.008669	0	0	0	-0.14564	-0.024209	0.057339	-0.13404	0.083247	0.10786	-0.11572	-0.068603	0.15751
326	3.0507	-0.1004	0.060021	0.098727	-0.015597	0.28448	0.18234	-0.04224	0.2965	0.16897	-0.046816	-0.15316	-0.008669	-0.046816	0.031938	-0.008669	0	0	0	-0.14553	-0.024263	0.057342	-0.13413	0.083274	0.10776	-0.1156	-0.06848	0.1576
327	3.0601	-0.1004	0.060055	0.098629	-0.016023	0.28467	0.18227	-0.042647	0.29662	0.16883	-0.046816	-0.15316	-0.008669	-0.046816	0.031938	-0.008669	0	0	0	-0.14542	-0.024315	0.057346	-0.13423	0.083301	0.10765	-0.11549	-0.06836	0.15769
328	3.0695	-0.10041	0.060088	0.098532	-0.016423	0.28485	0.18221	-0.043029	0.29674	0.16871	-0.046816	-0.15316	-0.008669	-0.046816	0.031938	-0.008669	0	0	0	-0.14531	-0.024364	0.057353	-0.13432	0.083327	0.10755	-0.11537	-0.068242	0.15778
329	3.0788	-0.10041	0.060121	0.098438	-0.016798	0.28501	0.18215	-0.043388	0.29684	0.16859	-0.046816	-0.15316	-0.008669	-0.046816	0.031938	-0.008669	0	0	0	-0.14519	-0.024412	0.057361	-0.13441	0.083353	0.10746	-0.11526	-0.068126	0.15786
330	3.0882	-0.10041	0.060154	0.098346	-0.017148	0.28517	0.1821	-0.043723	0.29694	0.16848	-0.046816	-0.15316	-0.008669	-0.046816	0.031938	-0.008669	0	0	0	-0.14508	-0.024458	0.05737	-0.1345	0.083378	0.10736	-0.11515	-0.068013	0.15795
331	3.0976	-0.1004	0.060185	0.098256	-0.017473	0.28532	0.18205	-0.044035	0.29703	0.16838	-0.046816	-0.15316	-0.008669	-0.046816	0.031938	-0.008669	0	0	0	-0.14497	-0.024501	0.057382	-0.13458	0.083403	0.10727	-0.11504	-0.067902	0.15803
332	3.107	-0.1004	0.060216	0.098168	-0.017775	0.28546	0.18201	-0.044325	0.29712	0.16829	-0.046816	-0.15316	-0.008669	-0.046816	0.031938	-0.008669	0	0	0	-0.14486	-0.024543	0.057394	-0.13466	0.083428	0.10718	-0.11494	-0.067794	0.15811
333	3.1164	-0.1004	0.060246	0.098082	-0.018054	0.2856	0.18198	-0.044594	0.29719	0.1682	-0.046816	-0.15316	-0.008669	-0.046816	0.031938	-0.008669	0	0	0	-0.14475	-0.024583	0.057409	-0.13474	0.083452	0.1071	-0.11483	-0.067688	0.1582
334	3.1258	-0.10039	0.060276	0.097998	-0.018311	0.28572	0.18194	-0.04484	0.29727	0.16812	-0.046816	-0.15316	-0.008669	-0.046816	0.031938	-0.008669	0	0	0	-0.14464	-0.024621	0.057424	-0.13482	0.083476	0.10702	-0.11473	-0.067584	0.15828
335	3.1352	-0.10039	0.060305	0.097916	-0.018545	0.28584	0.18192	-0.045066	0.29733	0.16804	-0.046816	-0.15316	-0.008669	-0.046816	0.031938	-0.008669	0	0	0	-0.14453	-0.024658	0.057441	-0.1349	0.083499	0.10694	-0.11463	-0.067482	0.15835
336	3.1446	-0.10038	0.060333	0.097837	-0.018757	0.28595	0.18189	-0.045271	0.29739	0.16797	-0.046816	-0.15316	-0.008669	-0.046816	0.031938	-0.008669	0	0	0	-0.14442	-0.024692	0.057458	-0.13497	0.083522	0.10686	-0.11454	-0.067383	0.15843
337	3.1539	-0.10037	0.060361	0.097759	-0.018948	0.28605	0.18188	-0.045456	0.29744	0.16791	-0.046816	-0.15316	-0.008669	-0.046816	0.031938	-0.008669	0	0	0	-0.14431	-0.024725	0.057477	-0.13504	0.083545	0.10679	-0.11444	-0.067287	0.15851
338	3.1633	-0.10036	0.060388	0.097684	-0.019119	0.28614	0.18186	-0.045622	0.29749	0.16786	-0.046816	-0.15316	-0.008669	-0.046816	0.031938	-0.008669	0	0	0	-0.1442	-0.024756	0.057496	-0.13511	0.083567	0.10672	-0.11435	-0.067192	0.15858
339	3.1727	-0.10035	0.060414	0.097611	-0.01927	0.28622	0.18185	-0.045768	0.29753	0.16781	-0.046816	-0.15316	-0.008669	-0.046816	0.031938	-0.008669	0	0	0	-0.1441	-0.024785	0.057516	-0.13518	0.083589	0.10665	-0.11426	-0.0671	0.15865
340	3.1821	-0.10034	0.06044	0.097539	-0.019401	0.2863	0.18185	-0.045896	0.29757	0.16776	-0.046816	-0.15316	-0.008669	-0.046816	0.031938	-0.008669	0	0	0	-0.14399	-0.024813	0.057537	-0.13524	0.083611	0.10659	-0.11418	-0.06701	0.15872
341	3.1915	-0.10033	0.060465	0.09747	-0.019513	0.28637	0.18185	-0.046006	0.2976	0.16773	-0.046816	-0.15316	-0.008669	-0.046816	0.031938	-0.008669	0	0	0	-0.14389	-0.024839	0.057559	-0.13531	0.083632	0.10653	-0.11409	-0.066923	0.15879
342	3.2009	-0.10032	0.060489	0.097403	-0.019607	0.28643	0.18185	-0.046098	0.29762	0.1677	-0.046816	-0.15316	-0.008669	-0.046816	0.031938	-0.008669	0	0	0	-0.14379	-0.024863	0.057581	-0.13537	0.083653	0.10647	-0.11401	-0.066838	0.15886
343	3.2103	-0.10031	0.060513	0.097338	-0.019682	0.28648	0.18185	-0.046173	0.29764	0.16767	-0.046816	-0.15316	-0.008669	-0.046816	0.031938	-0.008669	0	0	0	-0.14369	-0.024886	0.057603	-0.13543	0.083674	0.10641	-0.11393	-0.066755	0.15892
344	3.2196	-0.1003	0.060536	0.097275	-0.019741	0.28653	0.18186	-0.046232	0.29765	0.16765	-0.046816	-0.15316	-0.008669	-0.046816	0.031938	-0.008669	0	0	0	-0.14359	-0.024907	0.057626	-0.13548	0.083695	0.10635	-0.11386	-0.066675	0.15899
345	3.229	-0.10028	0.060559	0.097214	-0.019782	0.28657	0.18188	-0.046274	0.29766	0.16763	-0.046816	-0.15316	-0.008669	-0.046816	0.031938	-0.008669	0	0	0	-0.14349	-0.024927	0.057649	-0.13554	0.083715	0.1063	-0.11379	-0.066596	0.15905
346	3.2384	-0.10027	0.060581	0.097156	-0.019807	0.2866	0.18189	-0.0463	0.29766	0.16762	-0.046816	-0.15316	-0.008669	-0.046816	0.031938	-0.008669	0	0	0	-0.1434	-0.024945	0.057672	-0.13559	0.083735	0.10625	-0.11372	-0.06652	0.15911
347	3.2478	-0.10026	0.060602	0.097099	-0.019815	0.28663	0.18191	-0.046311	0.29765	0.16762	-0.046816	-0.15316	-0.008669	-0.046816	0.031938	-0.008669	0	0	0	-0.1433	-0.024962	0.057695	-0.13565	0.083754	0.10621	-0.11365	-0.066447	0.15917
